<svg width="32" height="32" viewBox="0 0 32 32" fill="none" xmlns="http://www.w3.org/2000/svg">
    <path fill-rule="evenodd" clip-rule="evenodd" d="M9.35464 7.23345C11.2008 5.83182 13.5033 5 16 5C22.0751 5 27 9.92487 27 16C27 18.4967 26.1682 20.7992 24.7666 22.6454L9.35464 7.23345ZM7.23334 9.35478C5.83178 11.2009 5 13.5033 5 16C5 22.0751 9.92487 27 16 27C18.4967 27 20.7991 26.1682 22.6452 24.7667L7.23334 9.35478ZM16 2C8.26801 2 2 8.26801 2 16C2 23.732 8.26801 30 16 30C23.732 30 30 23.732 30 16C30 8.26801 23.732 2 16 2Z" fill="#CF0000"/>
    </svg>
    