<svg width="100" height="87" viewBox="0 0 100 87" fill="none" xmlns="http://www.w3.org/2000/svg">
    <path d="M25.001 31.0713H75.001V86.9998H25.001V31.0713Z" fill="#8D959F"/>
    <path d="M34.375 65.25H65.625V87H34.375V65.25Z" fill="#DEE0E4"/>
    <path d="M78.124 31.0709C78.124 7.45665 21.874 15.5352 21.874 31.0709V52.8209C21.874 68.3566 34.374 80.7852 49.999 80.7852C65.624 80.7852 78.124 68.3566 78.124 52.8209V31.0709Z" fill="white"/>
    <path d="M62.5 55.9286C64.2259 55.9286 65.625 54.5375 65.625 52.8215C65.625 51.1055 64.2259 49.7144 62.5 49.7144C60.7741 49.7144 59.375 51.1055 59.375 52.8215C59.375 54.5375 60.7741 55.9286 62.5 55.9286Z" fill="#8D959F"/>
    <path d="M37.5 55.9286C39.2259 55.9286 40.625 54.5375 40.625 52.8215C40.625 51.1055 39.2259 49.7144 37.5 49.7144C35.7741 49.7144 34.375 51.1055 34.375 52.8215C34.375 54.5375 35.7741 55.9286 37.5 55.9286Z" fill="#8D959F"/>
    <path d="M50 0C31.25 0 0 8.07856 0 68.3571L25 86.9999V46.6071L62.5 24.8571L75 40.3928V86.9999L100 68.3571C100 55.9285 95 6.21427 62.5 6.21427L59.375 0H50Z" fill="#8D959F"/>
    </svg>
    